<?xml version="1.0" standalone="no"?>
<!DOCTYPE svg PUBLIC "-//W3C//DTD SVG 20010904//EN"
 "http://www.w3.org/TR/2001/REC-SVG-20010904/DTD/svg10.dtd">
<svg version="1.0" xmlns="http://www.w3.org/2000/svg"
 width="199.000000pt" height="114.000000pt" viewBox="0 0 199.000000 114.000000"
 preserveAspectRatio="xMidYMid meet">

<g transform="translate(0.000000,114.000000) scale(0.100000,-0.100000)"
fill="#c6d6d6" stroke="none">
<path d="M0 570 l0 -570 995 0 995 0 0 570 0 570 -995 0 -995 0 0 -570z m1950
0 l0 -530 -955 0 -955 0 0 530 0 530 955 0 955 0 0 -530z"/>
<path d="M1407 922 c-28 -60 -35 -68 -60 -69 -51 0 -123 -96 -96 -129 17 -21
40 -17 71 13 28 26 28 26 28 5 0 -29 24 -38 52 -20 19 13 24 12 41 -5 13 -13
26 -17 45 -12 28 7 82 52 82 68 0 5 -14 -5 -31 -22 -33 -33 -73 -41 -83 -15
-9 23 -8 24 15 24 24 0 82 55 77 73 -13 36 -90 8 -110 -41 -7 -15 -18 -35 -26
-44 -47 -56 -42 26 8 132 41 88 47 110 30 110 -6 0 -25 -31 -43 -68z m-48
-109 c-11 -29 -57 -83 -71 -83 -4 0 -8 11 -8 24 0 31 46 86 71 86 16 0 17 -4
8 -27z m167 11 c-3 -9 -6 -17 -6 -20 0 -2 -13 -10 -30 -19 -36 -19 -39 -7 -5
29 27 29 51 35 41 10z"/>
<path d="M776 894 c-4 -11 0 -15 16 -12 12 2 23 9 26 16 6 18 -35 15 -42 -4z"/>
<path d="M391 836 c-29 -16 -50 -52 -51 -87 0 -50 47 -65 94 -28 21 17 26 18
26 5 0 -20 38 -21 65 -2 11 7 31 16 45 19 20 5 28 1 35 -16 13 -30 52 -33 85
-8 23 17 29 18 34 6 6 -17 52 -20 61 -5 5 8 11 8 19 1 9 -8 21 1 45 35 40 57
68 58 63 1 -4 -41 14 -56 45 -39 13 8 23 6 35 -5 16 -14 20 -14 44 2 19 12 29
14 37 6 17 -17 42 -13 64 12 31 34 40 56 10 25 -14 -16 -30 -28 -35 -28 -17 0
-21 13 -10 34 57 102 -42 112 -112 11 -30 -44 -71 -64 -55 -27 14 30 10 64 -7
75 -13 9 -24 7 -48 -11 -24 -18 -30 -19 -30 -7 0 8 -7 15 -15 15 -8 0 -15 -8
-15 -19 0 -24 -37 -71 -56 -71 -19 0 -18 33 2 71 8 17 14 35 12 41 -6 17 -46
-31 -53 -63 -8 -33 -39 -59 -72 -59 -19 0 -23 6 -23 29 0 29 33 81 52 81 6 0
8 -9 5 -20 -6 -24 11 -27 20 -4 4 10 -1 22 -11 30 -25 18 -60 0 -86 -43 -26
-44 -54 -46 -38 -3 5 17 7 37 4 45 -8 22 -44 18 -58 -5 -7 -11 -19 -20 -26
-20 -7 0 -20 -16 -27 -35 -16 -36 -41 -55 -74 -55 -28 0 -28 48 0 84 24 31 43
34 36 5 -3 -13 -1 -19 6 -16 20 6 19 35 0 45 -13 7 -26 6 -42 -2z m165 -42
c-7 -27 -26 -24 -26 5 0 21 23 47 28 31 2 -6 1 -22 -2 -36z m544 22 c0 -18
-76 -103 -85 -94 -11 11 2 51 26 81 22 28 59 37 59 13z m-582 -77 c-7 -5 -16
-9 -20 -9 -10 0 -10 32 -1 55 5 15 8 13 21 -10 12 -23 12 -29 0 -36z"/>
<path d="M861 474 c-12 -15 -21 -31 -21 -35 0 -5 -9 -18 -20 -29 -11 -11 -15
-20 -10 -20 6 0 4 -15 -5 -36 -12 -30 -13 -41 -2 -63 17 -35 38 -37 76 -6 30
26 31 26 31 6 0 -25 28 -28 68 -8 15 8 42 21 60 30 33 17 33 17 27 -6 -4 -12
-25 -37 -46 -55 -47 -40 -53 -75 -12 -70 20 2 32 13 47 44 23 44 76 85 76 59
0 -19 39 -20 65 -2 38 26 63 27 80 1 8 -13 25 -24 36 -24 24 0 99 56 99 73 0
7 -5 4 -11 -5 -16 -29 -26 -21 -39 30 -21 80 -20 79 -31 60 -6 -11 -6 -33 2
-63 14 -54 10 -62 -21 -37 -20 16 -21 19 -6 31 9 7 16 18 16 23 0 5 -14 -4
-31 -21 -41 -41 -62 -42 -47 -1 5 17 7 37 4 45 -8 22 -44 18 -58 -5 -7 -11
-18 -20 -25 -20 -7 0 -19 -12 -27 -28 -8 -15 -24 -36 -36 -47 l-23 -20 8 25
c18 55 24 95 16 103 -9 9 -16 1 -41 -48 -8 -16 -23 -31 -32 -33 -15 -3 -16 0
-7 27 6 17 8 38 5 46 -8 22 -44 18 -58 -5 -7 -11 -18 -20 -25 -20 -7 0 -19
-13 -28 -29 -16 -32 -51 -61 -72 -61 -14 0 -18 67 -5 87 4 7 26 17 47 22 40 9
40 9 8 10 -39 1 -40 5 -13 49 34 55 19 74 -19 26z m145 -120 c-7 -27 -26 -24
-26 5 0 21 23 47 28 31 2 -6 1 -22 -2 -36z m220 0 c-7 -27 -26 -24 -26 5 0 21
23 47 28 31 2 -6 1 -22 -2 -36z m-258 -55 c-7 -5 -16 -9 -20 -9 -10 0 -10 32
-1 55 5 15 8 13 21 -10 12 -23 12 -29 0 -36z m220 0 c-7 -5 -16 -9 -20 -9 -10
0 -10 32 -1 55 5 15 8 13 21 -10 12 -23 12 -29 0 -36z m137 -9 c3 -6 -3 -10
-14 -10 -12 0 -21 2 -21 4 0 2 -3 12 -7 21 -5 15 -3 16 15 6 11 -6 24 -16 27
-21z m-294 -58 c-12 -22 -41 -48 -41 -36 0 8 40 54 47 54 2 0 -1 -8 -6 -18z"/>
<path d="M1087 463 c-14 -13 -6 -24 15 -21 27 4 36 28 11 28 -11 0 -23 -3 -26
-7z"/>
<path d="M513 390 c-38 -23 -53 -48 -53 -89 0 -38 15 -47 45 -27 20 14 28 14
45 4 15 -10 24 -10 39 -1 11 7 22 8 28 2 6 -6 21 8 41 37 41 57 69 58 64 1 -3
-26 1 -39 11 -43 18 -6 57 12 57 26 0 6 -9 5 -20 -2 -26 -17 -32 -8 -18 29 9
25 9 35 -1 47 -18 21 -33 20 -65 -5 -21 -17 -26 -18 -26 -5 0 31 -28 16 -34
-19 -4 -19 -16 -39 -27 -45 -28 -15 -42 -4 -27 23 18 33 21 69 6 78 -19 13
-30 11 -65 -11z m57 -14 c0 -18 -76 -103 -85 -94 -11 11 2 51 26 81 22 28 59
37 59 13z"/>
</g>
</svg>
